<?xml version="1.0" encoding="UTF-8"?>
<svg version="1.1" xmlns="http://www.w3.org/2000/svg" width="235" height="264">
<path d="M0 0 C1.41985476 -0.0040696 2.83970636 -0.00941366 4.259552 -0.01593018 C8.10040652 -0.02956227 11.94101825 -0.02432257 15.7818768 -0.01479292 C19.80828057 -0.00717644 23.83466411 -0.01424731 27.86106873 -0.01895142 C34.62047035 -0.02440256 41.3797735 -0.01723357 48.13916016 -0.00292969 C55.9469388 0.01340224 63.75448247 0.00810187 71.56225544 -0.0084089 C78.27498175 -0.02203419 84.98763744 -0.02393854 91.70037311 -0.0160929 C95.70567388 -0.01142295 99.71086429 -0.01077294 103.71615791 -0.02070236 C107.48127973 -0.02938522 111.24609925 -0.0233263 115.01118851 -0.00601959 C116.39063071 -0.00206204 117.77009847 -0.00317628 119.14953041 -0.00980759 C121.03661295 -0.01804116 122.92375127 -0.00587167 124.81080627 0.00723267 C126.39279233 0.00892928 126.39279233 0.00892928 128.00673771 0.01066017 C134.2995261 0.80699739 138.87555305 4.36604692 143.09855652 8.87835693 C148.83434932 16.4894329 148.40899408 27.26212723 148.28295898 36.37255859 C148.27871414 37.55416565 148.2744693 38.73577271 148.27009583 39.95318604 C148.25346776 43.68176255 148.21584538 47.40977384 148.17749023 51.13818359 C148.16242289 53.68505072 148.1487381 56.23192642 148.13647461 58.77880859 C148.10361644 64.98212244 148.0535782 71.18511262 147.98999023 77.38818359 C148.60495361 77.68168701 149.21991699 77.97519043 149.85351562 78.27758789 C158.28744417 82.66176581 165.14405195 91.38376981 171.29467773 98.46630859 C174.19309275 101.75206939 177.16894659 104.74307787 180.61499023 107.45068359 C182.93024227 109.33944183 184.61954603 110.72790955 185.98999023 113.38818359 C185.26172223 118.00054761 182.22587545 120.07543466 178.79077148 122.84912109 C177.1066857 124.28844821 175.75375929 125.73125524 174.36499023 127.45068359 C171.37237977 131.15207022 168.25522036 134.40763025 164.48999023 137.32568359 C161.56678398 139.73732875 159.38403987 142.45547279 156.98999023 145.38818359 C154.17366425 148.34189134 151.41361876 151.14511663 147.98999023 153.38818359 C147.32999023 153.38818359 146.66999023 153.38818359 145.98999023 153.38818359 C145.98999023 154.04818359 145.98999023 154.70818359 145.98999023 155.38818359 C145.18561523 155.82130859 144.38124023 156.25443359 143.55249023 156.70068359 C140.74716693 158.15605418 140.74716693 158.15605418 140.17749023 161.07568359 C140.11561523 161.83880859 140.05374023 162.60193359 139.98999023 163.38818359 C140.58811523 163.05818359 141.18624023 162.72818359 141.80249023 162.38818359 C143.98999023 161.38818359 143.98999023 161.38818359 146.98999023 161.38818359 C147.74621239 164.75851629 148.11814898 167.8739245 148.12280273 171.32568359 C148.12489746 172.28941895 148.12699219 173.2531543 148.12915039 174.24609375 C148.12214111 175.80142822 148.12214111 175.80142822 148.11499023 177.38818359 C148.11160645 178.47019043 148.10822266 179.55219727 148.10473633 180.66699219 C148.05099522 189.45178947 147.87240486 198.23211328 147.61499023 207.01318359 C147.58421387 208.23908203 147.5534375 209.46498047 147.52172852 210.72802734 C147.00686593 226.09272311 147.00686593 226.09272311 141.48999023 231.57568359 C140.88155273 232.20861328 140.27311523 232.84154297 139.64624023 233.49365234 C131.45720115 239.33436404 123.24910714 239.97038397 113.43725586 239.90576172 C112.10226177 239.91119408 110.76727368 239.91832295 109.43229675 239.92700195 C105.83507279 239.94510636 102.23831204 239.93822186 98.64108086 239.92548561 C94.85946365 239.91529049 91.07788357 239.92476923 87.29626465 239.93103027 C80.94817047 239.93828787 74.60026303 239.92876884 68.25219727 239.90966797 C60.93457971 239.88790272 53.61740811 239.89495544 46.29980135 239.91697359 C39.99372457 239.9351817 33.68778129 239.93765961 27.38168669 239.92721891 C23.62554342 239.92101356 19.86960909 239.92006603 16.11347961 239.93336487 C12.58048659 239.9450021 9.04806311 239.93675628 5.515131 239.91378784 C3.61586392 239.90605934 1.71654813 239.91778918 -0.18269348 239.93029785 C-8.81654757 239.84576581 -15.47442809 238.21032331 -22.82250977 233.63818359 C-27.59826677 228.72597639 -31.10819751 223.12788767 -31.16822815 216.16194153 C-31.18291279 214.86536354 -31.18291279 214.86536354 -31.1978941 213.54259205 C-31.20364861 212.59420806 -31.20940313 211.64582407 -31.21533203 210.66870117 C-31.22522313 209.66384265 -31.23511423 208.65898413 -31.24530506 207.62367535 C-31.27710749 204.26004618 -31.30181974 200.89640387 -31.32641602 197.53271484 C-31.34719239 195.15229996 -31.36832794 192.77188819 -31.38980103 190.39147949 C-31.44599189 183.98763594 -31.49545094 177.58375804 -31.54284286 171.1798439 C-31.57241054 167.21399317 -31.60334706 163.24815531 -31.63467407 159.28231812 C-31.77836753 140.98437649 -31.90250825 122.68637282 -32.01000977 104.38818359 C-32.01672195 103.24835022 -32.02343414 102.10851685 -32.03034973 100.93414307 C-32.10407324 88.22576998 -32.16162806 75.51749706 -32.18624878 62.80892944 C-32.19283337 59.41959935 -32.20368602 56.03032654 -32.21829224 52.64102173 C-32.23473501 48.70938927 -32.24112851 44.77787197 -32.23926926 40.84620667 C-32.2400581 39.4389537 -32.24410857 38.03169767 -32.25188065 36.62446594 C-32.34995051 17.63524603 -32.34995051 17.63524603 -27.01000977 10.38818359 C-26.58719727 9.81068359 -26.16438477 9.23318359 -25.72875977 8.63818359 C-18.70031517 -0.33429886 -10.74810364 -0.05175201 0 0 Z M-19.26000977 14.88818359 C-22.29908788 19.22972376 -22.16272097 23.14892484 -22.17063904 28.24992371 C-22.17572686 29.05946937 -22.18081468 29.86901504 -22.18605667 30.7030924 C-22.20179622 33.42518813 -22.21031019 36.14725729 -22.21875 38.86938477 C-22.22828724 40.81741505 -22.23817834 42.76544363 -22.24839783 44.71347046 C-22.27979753 51.11934393 -22.30005105 57.52523046 -22.31860352 63.93115234 C-22.32190084 65.02079481 -22.32519816 66.11043728 -22.3285954 67.23309922 C-22.35937638 77.50845911 -22.38608549 87.78382191 -22.40301418 98.05921459 C-22.42492466 111.20458712 -22.46690339 124.34955139 -22.53645176 137.49476069 C-22.58368821 146.73648106 -22.60794729 155.97809126 -22.61521107 165.21992856 C-22.62016776 170.74016626 -22.6352509 176.25994392 -22.67495537 181.78005028 C-22.71182855 186.97501062 -22.72022896 192.1692483 -22.70694923 197.36431503 C-22.70700317 199.26864195 -22.71729467 201.17300096 -22.73870087 203.07720757 C-23.2583411 215.56145086 -23.2583411 215.56145086 -17.52383518 226.16417408 C-12.73762023 230.03408706 -7.90595745 229.61939723 -2.01000977 229.38818359 C-1.68000977 228.06818359 -1.35000977 226.74818359 -1.01000977 225.38818359 C-1.68547852 225.21802734 -2.36094727 225.04787109 -3.05688477 224.87255859 C-12.32723534 222.35402404 -12.32723534 222.35402404 -15.01000977 218.38818359 C-16.14765973 214.15284087 -16.18708479 209.93078652 -16.23120117 205.57446289 C-16.24268157 204.79743956 -16.25416197 204.02041622 -16.26599026 203.21984673 C-16.30271116 200.63407188 -16.33238581 198.04827249 -16.36157227 195.46240234 C-16.38516835 193.62564334 -16.40897141 191.78888699 -16.43296814 189.95213318 C-16.49542575 185.01672334 -16.55020426 180.08125775 -16.60234451 175.14572906 C-16.63499212 172.07734172 -16.66940695 169.00897796 -16.70407104 165.94061279 C-17.06045673 133.79714504 -16.91537243 101.70207161 -16.18701172 69.56532288 C-15.98478954 60.00211626 -15.98059757 50.44278532 -16.06922913 40.87796021 C-16.17683314 21.96904106 -16.17683314 21.96904106 -13.07250977 17.76318359 C-9.19327038 15.17702401 -6.02658258 15.1965882 -1.4777832 15.12280273 C-0.31138809 15.09814186 -0.31138809 15.09814186 0.87857056 15.07298279 C2.5722064 15.0376731 4.26588786 15.00450295 5.95960236 14.97319221 C8.65213024 14.92293828 11.34444726 14.8661457 14.0368042 14.80747986 C21.69418993 14.64172269 29.35177988 14.48698103 37.00952148 14.33862305 C41.69340581 14.24741966 46.37705448 14.14780641 51.06066132 14.04336357 C52.83531927 14.00548354 54.6100481 13.97077086 56.38483429 13.93947029 C73.85933121 14.77781861 73.85933121 14.77781861 88.98999023 9.38818359 C75.90761346 9.31869678 62.82528053 9.2653789 49.74275684 9.23274708 C43.66811928 9.21708606 37.59360791 9.19583954 31.51904297 9.16186523 C25.65760239 9.12928777 19.79628326 9.11133386 13.93475914 9.10355186 C11.69762955 9.09800549 9.46050667 9.08717491 7.22342873 9.07099342 C4.09183981 9.04924096 0.96075378 9.0462158 -2.17089844 9.04760742 C-3.09734665 9.03682159 -4.02379486 9.02603577 -4.97831726 9.0149231 C-11.35385825 9.04561365 -14.86260789 10.00218151 -19.26000977 14.88818359 Z M111.98999023 9.38818359 C115.0849497 13.02009988 117.40821697 14.03564091 122.05249023 14.95068359 C128.54017122 16.24180428 128.54017122 16.24180428 130.98999023 19.38818359 C131.49058533 21.65742493 131.49058533 21.65742493 131.65771484 24.3112793 C131.72207733 25.29319244 131.78643982 26.27510559 131.85275269 27.28677368 C132.07890454 32.39754417 132.22565668 37.50353423 132.30639648 42.61865234 C132.32717758 43.73508621 132.34795868 44.85152008 132.36936951 46.00178528 C132.43413006 49.52636271 132.49340397 53.05100694 132.55249023 56.57568359 C132.59574556 58.98259121 132.63936193 61.38949237 132.68334961 63.79638672 C132.78973473 69.66025085 132.89162977 75.52417965 132.98999023 81.38818359 C133.64999023 81.38818359 134.30999023 81.38818359 134.98999023 81.38818359 C138.07011996 78.24143962 138.37495416 75.83523734 138.40991211 71.52148438 C138.42582397 70.33990753 138.44173584 69.15833069 138.45812988 67.94094849 C138.4583313 66.6679892 138.45853271 65.39502991 138.45874023 64.08349609 C138.46635376 62.77162323 138.47396729 61.45975037 138.48181152 60.10812378 C138.495247 57.3324122 138.49682994 54.55698497 138.4909668 51.78125 C138.48507697 48.23455728 138.51563346 44.68923648 138.55608368 41.14280891 C138.58824785 37.74799539 138.58384433 34.3534614 138.58374023 30.95849609 C138.6001355 29.68958527 138.61653076 28.42067444 138.63342285 27.11331177 C138.74516495 19.86865592 138.74516495 19.86865592 135.56323242 13.62548828 C130.41960662 9.1533643 126.87120811 9.12022201 120.23999023 9.26318359 C119.05083008 9.27671875 119.05083008 9.27671875 117.83764648 9.29052734 C115.88829742 9.31401348 113.93910449 9.34988222 111.98999023 9.38818359 Z M146.98999023 89.38818359 C146.94100586 90.06365234 146.89202148 90.73912109 146.84155273 91.43505859 C146.76678711 92.32708984 146.69202148 93.21912109 146.61499023 94.13818359 C146.51057617 95.46076172 146.51057617 95.46076172 146.40405273 96.81005859 C145.98855754 99.39710412 145.18059103 101.08441945 143.98999023 103.38818359 C143.98999023 104.37818359 143.98999023 105.36818359 143.98999023 106.38818359 C146.75451056 107.77044376 149.03612654 107.48343746 152.11499023 107.45068359 C153.21069336 107.44166016 154.30639648 107.43263672 155.43530273 107.42333984 C156.27834961 107.41173828 157.12139648 107.40013672 157.98999023 107.38818359 C157.28422852 106.31890625 157.28422852 106.31890625 156.56420898 105.22802734 C153.21146091 100.07048734 150.16614678 95.14859797 147.98999023 89.38818359 C147.65999023 89.38818359 147.32999023 89.38818359 146.98999023 89.38818359 Z M42.98999023 106.38818359 C42.98999023 106.71818359 42.98999023 107.04818359 42.98999023 107.38818359 C47.27999023 107.38818359 51.56999023 107.38818359 55.98999023 107.38818359 C55.98999023 107.05818359 55.98999023 106.72818359 55.98999023 106.38818359 C51.69999023 106.38818359 47.40999023 106.38818359 42.98999023 106.38818359 Z M30.98999023 122.38818359 C30.98999023 122.71818359 30.98999023 123.04818359 30.98999023 123.38818359 C37.01353858 124.44230456 42.8835413 124.53780637 48.98999023 124.51318359 C50.42858398 124.51898438 50.42858398 124.51898438 51.89624023 124.52490234 C57.03604385 124.51784217 61.9255012 124.27446918 66.98999023 123.38818359 C66.98999023 123.05818359 66.98999023 122.72818359 66.98999023 122.38818359 C55.10999023 122.38818359 43.22999023 122.38818359 30.98999023 122.38818359 Z M144.98999023 130.38818359 C143.20529757 132.10070986 143.20529757 132.10070986 141.98999023 134.38818359 C142.20716375 136.59618888 142.20716375 136.59618888 142.98999023 138.38818359 C144.63999023 136.73818359 146.28999023 135.08818359 147.98999023 133.38818359 C147.65999023 132.39818359 147.32999023 131.40818359 146.98999023 130.38818359 C146.32999023 130.38818359 145.66999023 130.38818359 144.98999023 130.38818359 Z M136.98999023 169.38818359 C136.51561523 170.56380859 136.04124023 171.73943359 135.55249023 172.95068359 C135.2856543 173.61197266 135.01881836 174.27326172 134.74389648 174.95458984 C133.06012097 180.38978231 132.86060583 185.9535831 132.77905273 191.60693359 C132.75099876 192.96501887 132.72233441 194.32309164 132.69311523 195.68115234 C132.65188298 197.7874332 132.61492415 199.89347663 132.58862305 202 C132.56082002 204.05694452 132.51498301 206.11288447 132.46655273 208.16943359 C132.4467334 209.38695312 132.42691406 210.60447266 132.40649414 211.85888672 C131.8368229 216.68606578 130.51090751 220.72396791 127.16577148 224.38427734 C126.24344727 225.09777344 126.24344727 225.09777344 125.30249023 225.82568359 C124.67987305 226.31939453 124.05725586 226.81310547 123.41577148 227.32177734 C122.94526367 227.67369141 122.47475586 228.02560547 121.98999023 228.38818359 C122.31999023 229.04818359 122.64999023 229.70818359 122.98999023 230.38818359 C124.37272783 230.06554482 125.74613667 229.70290892 127.11499023 229.32568359 C128.26354492 229.02984375 128.26354492 229.02984375 129.43530273 228.72802734 C133.30562009 226.698182 135.80971961 224.19078566 137.98999023 220.38818359 C138.79217163 216.4252531 138.69153271 212.57795335 138.57592773 208.54833984 C138.56743805 207.42624619 138.55894836 206.30415253 138.55020142 205.14805603 C138.51674516 201.58126851 138.44147363 198.01678215 138.36499023 194.45068359 C138.33488089 192.02558615 138.3075068 189.60045309 138.28295898 187.17529297 C138.21697929 181.24547784 138.11670678 175.31699515 137.98999023 169.38818359 C137.65999023 169.38818359 137.32999023 169.38818359 136.98999023 169.38818359 Z " fill="#284764" transform="translate(46.010009765625,10.61181640625)"/>
<path d="M0 0 C1.41985476 -0.0040696 2.83970636 -0.00941366 4.259552 -0.01593018 C8.10040652 -0.02956227 11.94101825 -0.02432257 15.7818768 -0.01479292 C19.80828057 -0.00717644 23.83466411 -0.01424731 27.86106873 -0.01895142 C34.62047035 -0.02440256 41.3797735 -0.01723357 48.13916016 -0.00292969 C55.9469388 0.01340224 63.75448247 0.00810187 71.56225544 -0.0084089 C78.27498175 -0.02203419 84.98763744 -0.02393854 91.70037311 -0.0160929 C95.70567388 -0.01142295 99.71086429 -0.01077294 103.71615791 -0.02070236 C107.48127973 -0.02938522 111.24609925 -0.0233263 115.01118851 -0.00601959 C116.39063071 -0.00206204 117.77009847 -0.00317628 119.14953041 -0.00980759 C121.03661295 -0.01804116 122.92375127 -0.00587167 124.81080627 0.00723267 C126.39279233 0.00892928 126.39279233 0.00892928 128.00673771 0.01066017 C134.2995261 0.80699739 138.87555305 4.36604692 143.09855652 8.87835693 C148.83434932 16.4894329 148.40899408 27.26212723 148.28295898 36.37255859 C148.27871414 37.55416565 148.2744693 38.73577271 148.27009583 39.95318604 C148.25346776 43.68176255 148.21584538 47.40977384 148.17749023 51.13818359 C148.16242289 53.68505072 148.1487381 56.23192642 148.13647461 58.77880859 C148.10361644 64.98212244 148.0535782 71.18511262 147.98999023 77.38818359 C148.60495361 77.68168701 149.21991699 77.97519043 149.85351562 78.27758789 C158.28744417 82.66176581 165.14405195 91.38376981 171.29467773 98.46630859 C174.19309275 101.75206939 177.16894659 104.74307787 180.61499023 107.45068359 C182.93024227 109.33944183 184.61954603 110.72790955 185.98999023 113.38818359 C185.26172223 118.00054761 182.22587545 120.07543466 178.79077148 122.84912109 C177.1066857 124.28844821 175.75375929 125.73125524 174.36499023 127.45068359 C171.37237977 131.15207022 168.25522036 134.40763025 164.48999023 137.32568359 C161.56678398 139.73732875 159.38403987 142.45547279 156.98999023 145.38818359 C154.17366425 148.34189134 151.41361876 151.14511663 147.98999023 153.38818359 C147.32999023 153.38818359 146.66999023 153.38818359 145.98999023 153.38818359 C145.98999023 154.04818359 145.98999023 154.70818359 145.98999023 155.38818359 C142.98999023 157.38818359 142.98999023 157.38818359 139.98999023 157.38818359 C139.27594234 149.04175713 140.64506673 143.54178979 144.98999023 136.38818359 C145.97999023 136.38818359 146.96999023 136.38818359 147.98999023 136.38818359 C148.22588867 135.83388672 148.46178711 135.27958984 148.70483398 134.70849609 C150.30263573 131.82371118 152.30850033 129.67646327 154.55249023 127.26318359 C157.6271821 124.0731085 157.6271821 124.0731085 159.98999023 120.38818359 C108.17999023 120.38818359 56.36999023 120.38818359 2.98999023 120.38818359 C2.98999023 116.42818359 2.98999023 112.46818359 2.98999023 108.38818359 C54.79999023 108.38818359 106.60999023 108.38818359 159.98999023 108.38818359 C155.66368571 102.88657235 155.66368571 102.88657235 152.86499023 100.51318359 C150.15948721 97.44694683 149.27945085 94.25656544 147.98999023 90.38818359 C147.9294043 91.02626953 147.86881836 91.66435547 147.80639648 92.32177734 C147.72260742 93.14806641 147.63881836 93.97435547 147.55249023 94.82568359 C147.4712793 95.64939453 147.39006836 96.47310547 147.30639648 97.32177734 C146.98999023 99.38818359 146.98999023 99.38818359 145.98999023 100.38818359 C144.00999023 100.38818359 142.02999023 100.38818359 139.98999023 100.38818359 C139.65999023 72.99818359 139.32999023 45.60818359 138.98999023 17.38818359 C137.00999023 16.39818359 137.00999023 16.39818359 134.98999023 15.38818359 C134.16499023 14.37755859 133.33999023 13.36693359 132.48999023 12.32568359 C129.77406733 9.10658081 129.77406733 9.10658081 125.98999023 8.38818359 C124.08494829 8.29963925 122.17705627 8.26619535 120.2699585 8.26792908 C119.10330658 8.26655441 117.93665466 8.26517975 116.73464966 8.26376343 C115.45862885 8.2673587 114.18260803 8.27095398 112.86791992 8.2746582 C111.50774131 8.27494034 110.14756255 8.27478182 108.78738403 8.2742157 C105.09764258 8.27392877 101.40793363 8.27980873 97.71819973 8.28678966 C93.86114606 8.29304047 90.00409165 8.29362836 86.14703369 8.29481506 C78.84438726 8.29792328 71.54175579 8.30612981 64.23911595 8.31616455 C55.92479409 8.3273415 47.61047151 8.33284013 39.29614401 8.33785999 C22.19408409 8.34831283 5.09203875 8.36590242 -12.01000977 8.38818359 C-12.01000977 9.04818359 -12.01000977 9.70818359 -12.01000977 10.38818359 C-12.75250977 10.78005859 -13.49500977 11.17193359 -14.26000977 11.57568359 C-17.75249015 13.87754567 -19.44262291 16.59090183 -21.01000977 20.38818359 C-21.38564308 23.29910561 -21.56071952 25.82391642 -21.53140259 28.72421265 C-21.54287923 29.94259935 -21.54287923 29.94259935 -21.55458772 31.18559992 C-21.57513978 33.89320632 -21.56728503 36.59995588 -21.55932617 39.30761719 C-21.56802522 41.25462118 -21.57839314 43.20161833 -21.59030151 45.14860535 C-21.61705324 50.42762974 -21.61824207 55.7063675 -21.61317492 60.98544645 C-21.61103348 65.39643039 -21.6208074 69.80735657 -21.63038576 74.21832812 C-21.65256649 84.62687869 -21.65345641 95.0352849 -21.64135742 105.44384766 C-21.62927784 116.17253853 -21.65390163 126.90070482 -21.69649756 137.6293062 C-21.73175354 146.84907856 -21.74372852 156.06868413 -21.73722208 165.28852141 C-21.73359971 170.79135315 -21.7388349 176.29381071 -21.76665115 181.79658127 C-21.79183819 186.97279069 -21.78789255 192.14818371 -21.76182938 197.32438087 C-21.7571051 199.22020178 -21.76254152 201.11608041 -21.77907562 203.0118351 C-22.11860296 215.70385286 -22.11860296 215.70385286 -16.78461266 226.89835548 C-12.88941077 230.16848499 -9.0430811 230.64286501 -4.08274841 230.70703125 C-2.89526001 230.72686569 -1.70777161 230.74670013 -0.48429871 230.76713562 C0.80989487 230.77872208 2.10408844 230.79030853 3.4375 230.80224609 C4.82090292 230.82137737 6.20429537 230.84127932 7.587677 230.8618927 C11.33745574 230.91477048 15.08725914 230.95463878 18.83723569 230.99048996 C21.18027391 231.01317273 23.52327762 231.0381205 25.86628532 231.06375122 C33.19821908 231.14331156 40.53016642 231.21493374 47.8622852 231.27513218 C56.32527965 231.34468241 64.78744356 231.44042209 73.24989277 231.558815 C79.7942377 231.64880872 86.33856431 231.71571042 92.88334125 231.76502228 C96.79167675 231.79497711 100.69932847 231.83474037 104.60727119 231.89849854 C108.28045913 231.95778207 111.95277733 231.98843413 115.62642288 231.997015 C117.6177749 232.00895302 119.60887713 232.05079082 121.59980774 232.09346008 C124.84275351 232.08600291 127.81330022 232.03884265 130.98999023 231.38818359 C133.8559724 228.72037258 133.8559724 228.72037258 134.98999023 225.38818359 C135.54686523 224.50130859 136.10374023 223.61443359 136.67749023 222.70068359 C138.72731567 219.0890864 139.12745448 216.26354842 139.1953125 212.18237305 C139.21525772 211.12149979 139.23520294 210.06062653 139.25575256 208.96760559 C139.27246506 207.82377914 139.28917755 206.6799527 139.30639648 205.50146484 C139.33756813 203.74324654 139.33756813 203.74324654 139.36936951 201.94950867 C139.43482841 198.19996073 139.4937332 194.45034196 139.55249023 190.70068359 C139.59567892 188.16096268 139.63929332 185.62124898 139.68334961 183.08154297 C139.7905061 176.85049837 139.89227944 170.61938308 139.98999023 164.38818359 C141.96999023 163.72818359 143.94999023 163.06818359 145.98999023 162.38818359 C146.15270232 170.46401617 146.27681835 178.53915591 146.35267544 186.6162262 C146.38909731 190.3674641 146.43843671 194.11757483 146.51806641 197.86816406 C146.59453369 201.49278714 146.63606348 205.11633136 146.65413094 208.74169922 C146.66699338 210.11963881 146.6921122 211.4975241 146.73010063 212.875 C147.05087047 224.99635511 147.05087047 224.99635511 142.69726562 230.11083984 C140.88783264 231.85717773 140.88783264 231.85717773 138.98999023 233.38818359 C138.41852768 233.88890381 137.84706512 234.38962402 137.25828552 234.90551758 C129.6765388 239.86130895 122.47042333 239.82429417 113.66430664 239.79223633 C112.32960949 239.79794772 110.99491722 239.80491494 109.66023254 239.81303406 C106.0547068 239.83089745 102.44942534 239.82980987 98.84386873 239.82409167 C95.82471847 239.8209894 92.80561443 239.82710389 89.78647077 239.83313042 C82.65863305 239.84715211 75.53091524 239.84563451 68.40307617 239.83422852 C61.07074554 239.82275394 53.73878096 239.836817 46.40649855 239.86362499 C40.09198211 239.88584013 33.77758007 239.8924062 27.46302736 239.88654858 C23.7001324 239.88319111 19.93747192 239.88551261 16.17461014 239.90279961 C12.63345961 239.91835955 9.0928477 239.91421443 5.55171776 239.89549446 C3.6476442 239.89009991 1.74354594 239.9042543 -0.16047668 239.91918945 C-8.80818172 239.84555458 -15.46309108 238.21737744 -22.82250977 233.63818359 C-27.59826677 228.72597639 -31.10819751 223.12788767 -31.16822815 216.16194153 C-31.18291279 214.86536354 -31.18291279 214.86536354 -31.1978941 213.54259205 C-31.20364861 212.59420806 -31.20940313 211.64582407 -31.21533203 210.66870117 C-31.22522313 209.66384265 -31.23511423 208.65898413 -31.24530506 207.62367535 C-31.27710749 204.26004618 -31.30181974 200.89640387 -31.32641602 197.53271484 C-31.34719239 195.15229996 -31.36832794 192.77188819 -31.38980103 190.39147949 C-31.44599189 183.98763594 -31.49545094 177.58375804 -31.54284286 171.1798439 C-31.57241054 167.21399317 -31.60334706 163.24815531 -31.63467407 159.28231812 C-31.77836753 140.98437649 -31.90250825 122.68637282 -32.01000977 104.38818359 C-32.01672195 103.24835022 -32.02343414 102.10851685 -32.03034973 100.93414307 C-32.10407324 88.22576998 -32.16162806 75.51749706 -32.18624878 62.80892944 C-32.19283337 59.41959935 -32.20368602 56.03032654 -32.21829224 52.64102173 C-32.23473501 48.70938927 -32.24112851 44.77787197 -32.23926926 40.84620667 C-32.2400581 39.4389537 -32.24410857 38.03169767 -32.25188065 36.62446594 C-32.34995051 17.63524603 -32.34995051 17.63524603 -27.01000977 10.38818359 C-26.58719727 9.81068359 -26.16438477 9.23318359 -25.72875977 8.63818359 C-18.70031517 -0.33429886 -10.74810364 -0.05175201 0 0 Z " fill="#1A7D73" transform="translate(46.010009765625,10.61181640625)"/>
<path d="M0 0 C46.86 0 93.72 0 142 0 C135.025 9.3 135.025 9.3 132.75 12 C132.27046875 12.5775 131.7909375 13.155 131.296875 13.75 C130 15 130 15 128 15 C128.33 13.35 128.66 11.7 129 10 C128.01 10.33 127.02 10.66 126 11 C125.29925156 14.153368 125 16.72724974 125 20 C124.67128906 20.78375 124.34257812 21.5675 124.00390625 22.375 C122.83073321 25.44259643 122.83320861 27.72942209 122.9375 31 C123.05071691 34.8592199 122.89239063 38.2367403 122 42 C122.598125 41.67 123.19625 41.34 123.8125 41 C126 40 126 40 129 40 C129.75622215 43.3703327 130.12815874 46.4857409 130.1328125 49.9375 C130.13474609 50.90179932 130.13667969 51.86609863 130.13867188 52.85961914 C130.13416016 53.89594482 130.12964844 54.93227051 130.125 56 C130.12306641 57.07693115 130.12113281 58.1538623 130.11914062 59.26342773 C130.05102018 72.51758493 129.53659815 85.75772803 129 99 C128.67 99 128.34 99 128 99 C127.67 80.19 127.34 61.38 127 42 C125.35 42.33 123.7 42.66 122 43 C122.00444122 43.6573262 122.00888245 44.3146524 122.01345825 44.99189758 C122.0576366 51.82099234 122.08784354 58.65004663 122.10986328 65.47924805 C122.11993328 68.02939502 122.13359004 70.57953042 122.15087891 73.12963867 C122.17508312 76.7908819 122.18647305 80.45197274 122.1953125 84.11328125 C122.20563507 85.2571077 122.21595764 86.40093414 122.22659302 87.579422 C122.22674408 88.64029526 122.22689514 89.70116852 122.22705078 90.79418945 C122.231492 91.72906693 122.23593323 92.6639444 122.24050903 93.62715149 C122 96 122 96 120 99 C119.67 82.83 119.34 66.66 119 50 C116.67072249 56.98783252 115.89627822 63.14242137 115.68359375 70.46484375 C115.6524221 71.48210289 115.6524221 71.48210289 115.62062073 72.51991272 C115.55590691 74.65901831 115.4966091 76.79823296 115.4375 78.9375 C115.39424016 80.39909924 115.35062366 81.86068797 115.30664062 83.32226562 C115.20030749 86.8813984 115.0988267 90.44064997 115 94 C114.67 94 114.34 94 114 94 C114 65.62 114 37.24 114 8 C102.78 8 91.56 8 80 8 C80.04640625 12.14046875 80.0928125 16.2809375 80.140625 20.546875 C80.16635374 23.85090654 80.18804309 27.15490973 80.20700073 30.45898438 C80.22811313 33.94551739 80.25631894 37.43166069 80.30175781 40.91796875 C80.35358227 44.91930893 80.37295453 48.92023719 80.390625 52.921875 C80.41127014 54.16990906 80.43191528 55.41794312 80.45318604 56.70379639 C80.45363922 58.44514862 80.45363922 58.44514862 80.45410156 60.22167969 C80.46298401 61.24316101 80.47186646 62.26464233 80.48101807 63.31707764 C79.86828196 66.73466944 78.65370128 67.83210422 76 70 C72.46988429 72.35341047 70.97132922 72.26230223 66.7878418 72.29052734 C65.50608566 72.30328705 64.22432953 72.31604675 62.9037323 72.32919312 C61.50222932 72.33225107 60.10072431 72.33447867 58.69921875 72.3359375 C57.26056282 72.34236568 55.82190819 72.34909406 54.383255 72.35610962 C51.36623099 72.36808688 48.3493215 72.37179012 45.33227539 72.37060547 C41.47527719 72.37040253 37.61901794 72.39767526 33.76219463 72.43214989 C30.78952191 72.45444475 27.81702609 72.45844219 24.84427834 72.45738602 C23.42296623 72.45973922 22.00164904 72.46854705 20.58041954 72.48405075 C18.58715758 72.5037541 16.5936785 72.49533907 14.6003418 72.48583984 C13.46799606 72.48868988 12.33565033 72.49153992 11.16899109 72.49447632 C7.21749431 71.87790103 5.07923479 70.51975342 2 68 C-8.141225 47.71755001 0 22.67646847 0 0 Z M13 1 C13 1.33 13 1.66 13 2 C19.02354835 3.05412096 24.89355107 3.14962278 31 3.125 C32.43859375 3.13080078 32.43859375 3.13080078 33.90625 3.13671875 C39.04605362 3.12965858 43.93551096 2.88628558 49 2 C49 1.67 49 1.34 49 1 C37.12 1 25.24 1 13 1 Z " fill="#0E2132" transform="translate(64,132)"/>
<path d="M0 0 C2.45389226 3.6808384 2.26853779 6.43051278 2.22705078 10.68432617 C2.22734283 11.4650499 2.22763489 12.24577362 2.22793579 13.05015564 C2.22654224 15.63120633 2.21097993 18.21196848 2.1953125 20.79296875 C2.19158246 22.58229922 2.18873544 24.37163173 2.18673706 26.16096497 C2.1790999 30.87101885 2.15945069 35.58094943 2.1373291 40.29095459 C2.11687247 45.09694755 2.10773573 49.90296043 2.09765625 54.70898438 C2.07620489 64.1393771 2.04206792 73.5696783 2 83 C3.98 83 5.96 83 8 83 C7.34 84.98 6.68 86.96 6 89 C6.66 89.33 7.32 89.66 8 90 C-34.24 90 -76.48 90 -120 90 C-120 35 -120 35 -116 30 C-113.16864329 28.58432164 -110.77628817 28.85705723 -107.61010742 28.83886719 C-106.62685234 28.83141983 -106.62685234 28.83141983 -105.62373352 28.82382202 C-103.45096798 28.80919456 -101.27827548 28.80239685 -99.10546875 28.796875 C-97.59572853 28.79112324 -96.08598834 28.78536551 -94.57624817 28.77960205 C-91.40784362 28.76908987 -88.23946446 28.76324889 -85.07104492 28.75976562 C-81.01565917 28.75428579 -76.96061001 28.73026991 -72.9053297 28.70179367 C-69.7851718 28.68314614 -66.66509455 28.67796054 -63.54488564 28.67642975 C-62.05018591 28.67340655 -60.5554875 28.66538922 -59.06084251 28.65224457 C-56.96632889 28.63514202 -54.87263177 28.6370742 -52.77807617 28.64355469 C-51.58719894 28.63990906 -50.39632172 28.63626343 -49.1693573 28.63250732 C-45.67602385 29.03756562 -43.79664096 29.90438972 -41 32 C-39.79112709 34.41774581 -39.87940657 35.93331064 -39.88647461 38.63330078 C-39.88658791 40.07456833 -39.88658791 40.07456833 -39.88670349 41.54495239 C-39.89186478 42.58457123 -39.89702606 43.62419006 -39.90234375 44.6953125 C-39.9037587 45.75789276 -39.90517365 46.82047302 -39.90663147 47.91525269 C-39.91224166 51.31853009 -39.92479591 54.72174238 -39.9375 58.125 C-39.94251369 60.42838447 -39.94707682 62.73176997 -39.95117188 65.03515625 C-39.96136473 70.69014961 -39.98093821 76.34500167 -40 82 C-28.78 82 -17.56 82 -6 82 C-6 59.23 -6 36.46 -6 13 C-5.67 13 -5.34 13 -5 13 C-5 29.83 -5 46.66 -5 64 C-4.34 64 -3.68 64 -3 64 C-0.96021868 60.61300394 -0.73060842 57.96160138 -0.68115234 54.03808594 C-0.66128265 52.83714294 -0.64141296 51.63619995 -0.62094116 50.39886475 C-0.60938995 49.10708313 -0.59783875 47.81530151 -0.5859375 46.484375 C-0.56722013 45.14486505 -0.54764629 43.80536682 -0.5272522 42.46588135 C-0.47598476 38.94786497 -0.43633048 35.42981038 -0.39910889 31.91162109 C-0.35903526 28.31858918 -0.30795829 24.72571546 -0.2578125 21.1328125 C-0.16111722 14.08865758 -0.0766921 7.0444034 0 0 Z " fill="#0E2132" transform="translate(184,28)"/>
<path d="M0 0 C3.72426467 1.9601393 5.19777111 3.27539364 7 7 C8.32467746 7.6837045 9.65863633 8.34964186 11 9 C14 12.42857143 14 12.42857143 14 15 C14.556875 15.04125 15.11375 15.0825 15.6875 15.125 C18.62145268 16.23514426 19.71194208 18.09519863 21.58203125 20.5234375 C23.12598293 22.32335147 23.12598293 22.32335147 26.5 23.5 C30.82529729 25.35369884 32.25786358 27.26072306 35 31 C33.7750757 35.62749182 31.37272825 37.57675669 27.80078125 40.4609375 C26.11669546 41.90026461 24.76376906 43.34307165 23.375 45.0625 C20.38238954 48.76388663 17.26523012 52.01944665 13.5 54.9375 C10.57679375 57.34914516 8.39404964 60.0672892 6 63 C3.18367401 65.95370774 0.42362853 68.75693303 -3 71 C-3.66 71 -4.32 71 -5 71 C-5 71.66 -5 72.32 -5 73 C-8 75 -8 75 -11 75 C-11.71404789 66.65357353 -10.3449235 61.15360619 -6 54 C-5.01 54 -4.02 54 -3 54 C-2.76410156 53.44570312 -2.52820313 52.89140625 -2.28515625 52.3203125 C-0.6873545 49.43552758 1.31851009 47.28827968 3.5625 44.875 C6.63719186 41.68492491 6.63719186 41.68492491 9 38 C-42.81 38 -94.62 38 -148 38 C-148 34.04 -148 30.08 -148 26 C-96.19 26 -44.38 26 9 26 C4.92570064 20.29584247 4.92570064 20.29584247 2 19 C1.16819158 16.53690653 0.45899757 14.13630466 -0.1875 11.625 C-0.37763672 10.93921875 -0.56777344 10.2534375 -0.76367188 9.546875 C-1.65215261 6.17654955 -2.12422048 4.37266145 -1 1 C-0.67 0.67 -0.34 0.34 0 0 Z " fill="#19A091" transform="translate(197,93)"/>
<path d="M0 0 C0.8125 1.625 0.8125 1.625 1 4 C-1.68566775 7.68320148 -4.71583763 10.83747327 -8 14 C-1.3991964 12.36058473 2.10886541 10.64842118 6 5 C6.33 5.99 6.66 6.98 7 8 C6.401875 8.556875 5.80375 9.11375 5.1875 9.6875 C2.90120538 11.87576184 2.90120538 11.87576184 1.71786213 14.60806274 C0 17 0 17 -2.55443287 17.60800171 C-3.58365706 17.59991486 -4.61288126 17.591828 -5.67329407 17.58349609 C-7.4460672 17.58768806 -7.4460672 17.58768806 -9.25465393 17.59196472 C-10.55289597 17.56935074 -11.851138 17.54673676 -13.1887207 17.5234375 C-14.56856487 17.51707634 -15.94842049 17.5128824 -17.32827759 17.51069641 C-21.0788176 17.49819154 -24.82839555 17.45419049 -28.57859445 17.4038353 C-32.50346508 17.35561808 -36.42849046 17.33350339 -40.3535614 17.30786133 C-46.9487637 17.26077975 -53.54353716 17.19393347 -60.13842773 17.11474609 C-67.75738222 17.0234387 -75.37616297 16.96004631 -82.99550754 16.91244888 C-90.3271194 16.86626187 -97.65848515 16.80321908 -104.98988914 16.73150635 C-108.10813853 16.7011206 -111.2263631 16.6760655 -114.34469032 16.6552124 C-118.0212484 16.62964626 -121.69735329 16.58912118 -125.37363052 16.53719139 C-127.36190997 16.51247922 -129.35035191 16.50214319 -131.33876038 16.49226379 C-132.5290686 16.47249985 -133.71937683 16.4527359 -134.945755 16.43237305 C-136.49128791 16.41571846 -136.49128791 16.41571846 -138.06804371 16.39872742 C-141.51780481 15.92958184 -143.98183999 14.6957823 -147 13 C-146.34 12.67 -145.68 12.34 -145 12 C-144.01 12.33 -143.02 12.66 -142 13 C-140.43881572 13.06740865 -138.8749748 13.08514456 -137.3125 13.0625 C-136.50425781 13.05347656 -135.69601563 13.04445312 -134.86328125 13.03515625 C-134.24839844 13.02355469 -133.63351563 13.01195312 -133 13 C-132.67 12.01 -132.34 11.02 -132 10 C-134.64 9.67 -137.28 9.34 -140 9 C-140 8.67 -140 8.34 -140 8 C-138.96189997 7.99780016 -138.96189997 7.99780016 -137.90282822 7.99555588 C-121.0690196 7.95851608 -104.23544569 7.89953919 -87.40180588 7.81609726 C-79.26119401 7.77627532 -71.12067925 7.74389893 -62.97998047 7.72900391 C-55.88514344 7.71600366 -48.79051979 7.68908091 -41.69580293 7.64538693 C-37.93859549 7.62273517 -34.1816516 7.60709152 -30.42436981 7.60811615 C-26.23150348 7.60899885 -22.03941698 7.57880107 -17.84667969 7.54589844 C-16.59871109 7.5509288 -15.35074249 7.55595917 -14.06495667 7.56114197 C-12.92354721 7.54722916 -11.78213776 7.53331635 -10.60614014 7.51898193 C-9.61429089 7.51529476 -8.62244164 7.51160759 -7.60053635 7.50780869 C-4.26178955 6.85584909 -3.09135783 5.63242009 -1 3 C-0.67 2.01 -0.34 1.02 0 0 Z " fill="#0C2233" transform="translate(177,226)"/>
<path d="M0 0 C1.21413071 -0.00708481 2.42826141 -0.01416962 3.67918396 -0.02146912 C5.03195227 -0.01917505 6.38472024 -0.01666532 7.73748779 -0.01396179 C9.15660369 -0.0183072 10.57571724 -0.02348978 11.99482727 -0.02944946 C15.85658509 -0.04287309 19.71824524 -0.04341414 23.58002186 -0.04088616 C26.80303544 -0.03981815 30.02602913 -0.04469576 33.24903846 -0.04949158 C40.85506658 -0.06059962 48.46104532 -0.06101772 56.06707764 -0.05497742 C63.91166424 -0.04894329 71.75607123 -0.06123132 79.60062718 -0.08254749 C86.33447515 -0.10017224 93.068266 -0.10616324 99.80213618 -0.10290974 C103.82428918 -0.10109722 107.84631423 -0.10372935 111.86844635 -0.11762428 C115.65400415 -0.13021132 119.43928277 -0.12825039 123.22483635 -0.11521339 C124.61234316 -0.11284949 125.99986966 -0.11557569 127.3873539 -0.12383652 C129.28563522 -0.13432094 131.18399621 -0.12439124 133.08227539 -0.11352539 C134.67400259 -0.113777 134.67400259 -0.113777 136.29788589 -0.1140337 C142.59921526 0.67379588 147.17603673 4.23361141 151.40367126 8.75086975 C157.13946407 16.36194572 156.71410882 27.13464005 156.58807373 36.24507141 C156.58382889 37.42667847 156.57958405 38.60828552 156.57521057 39.82569885 C156.55858251 43.55427537 156.52096013 47.28228666 156.48260498 51.01069641 C156.46753764 53.55756354 156.45385285 56.10443924 156.44158936 58.65132141 C156.40873118 64.85463526 156.35869295 71.05762544 156.29510498 77.26069641 C156.91006836 77.55419983 157.52503174 77.84770325 158.15863037 78.15010071 C166.60366093 82.54004974 173.49834279 91.2881534 179.64666748 98.38960266 C181.44843024 100.43473148 183.32895698 102.37319433 185.29510498 104.26069641 C184.30510498 104.59069641 183.31510498 104.92069641 182.29510498 105.26069641 C181.89678467 104.76698547 181.49846436 104.27327454 181.08807373 103.76460266 C180.55826904 103.1239386 180.02846436 102.48327454 179.48260498 101.82319641 C178.96053467 101.18511047 178.43846436 100.54702454 177.90057373 99.88960266 C176.28676088 98.00586891 176.28676088 98.00586891 173.29510498 97.26069641 C170.29510498 93.81625197 170.29510498 93.81625197 170.29510498 91.26069641 C169.53197998 91.03382141 168.76885498 90.80694641 167.98260498 90.57319641 C165.29510498 89.26069641 165.29510498 89.26069641 163.73260498 86.63569641 C163.25822998 85.85194641 162.78385498 85.06819641 162.29510498 84.26069641 C160.97510498 84.26069641 159.65510498 84.26069641 158.29510498 84.26069641 C159.28510498 89.21069641 160.27510498 94.16069641 161.29510498 99.26069641 C158.18958832 96.15517975 157.48186564 94.36871408 156.29510498 90.26069641 C156.23451904 90.89878235 156.17393311 91.53686829 156.11151123 92.19429016 C156.02772217 93.02057922 155.94393311 93.84686829 155.85760498 94.69819641 C155.77639404 95.52190735 155.69518311 96.34561829 155.61151123 97.19429016 C155.29510498 99.26069641 155.29510498 99.26069641 154.29510498 100.26069641 C152.31510498 100.26069641 150.33510498 100.26069641 148.29510498 100.26069641 C147.96510498 72.87069641 147.63510498 45.48069641 147.29510498 17.26069641 C145.31510498 16.27069641 145.31510498 16.27069641 143.29510498 15.26069641 C142.08854248 13.77569641 142.08854248 13.77569641 140.85760498 12.26069641 C138.33136186 9.30314348 136.95618716 8.30671989 133.29510498 7.26069641 C133.29510498 6.93069641 133.29510498 6.60069641 133.29510498 6.26069641 C136.59510498 6.59069641 139.89510498 6.92069641 143.29510498 7.26069641 C143.29510498 6.60069641 143.29510498 5.94069641 143.29510498 5.26069641 C139.00510498 4.60069641 134.71510498 3.94069641 130.29510498 3.26069641 C130.29510498 2.93069641 130.29510498 2.60069641 130.29510498 2.26069641 C84.75510498 2.26069641 39.21510498 2.26069641 -7.70489502 2.26069641 C-5.03088926 -0.41330935 -3.7380975 0.0072419 0 0 Z " fill="#1F8F85" transform="translate(37.70489501953125,10.739303588867188)"/>
<path d="M0 0 C1.1944574 -0.0071553 2.38891479 -0.01431061 3.61956787 -0.02168274 C4.92154114 -0.02437164 6.2235144 -0.02706055 7.56494141 -0.02983093 C8.95656502 -0.03610059 10.34818698 -0.04274783 11.73980713 -0.04974365 C16.29869434 -0.07071542 20.85758165 -0.08113514 25.41650391 -0.09111023 C26.98801694 -0.09515946 28.5595298 -0.09927643 30.13104248 -0.10346031 C37.51056151 -0.12249174 44.89007062 -0.13673069 52.26960945 -0.14507228 C60.78432257 -0.15485693 69.29877658 -0.18121679 77.81339836 -0.22157317 C84.39951232 -0.25171769 90.98555186 -0.2665393 97.57173347 -0.26985329 C101.50389246 -0.2722044 105.43577396 -0.28117339 109.36785889 -0.30631447 C113.06485058 -0.32957335 116.76138156 -0.33383758 120.45842743 -0.32355309 C122.46013835 -0.32282087 124.46182577 -0.34192425 126.46343994 -0.36161804 C127.65789734 -0.35467422 128.85235474 -0.34773041 130.08300781 -0.34057617 C131.11906158 -0.34296453 132.15511536 -0.34535288 133.2225647 -0.34781361 C136.80319508 0.28091829 138.47330306 1.61775913 141.04150391 4.14717102 C141.37150391 5.13717102 141.70150391 6.12717102 142.04150391 7.14717102 C141.40422961 7.07541971 140.76695532 7.0036684 140.11036968 6.92974281 C132.55921627 6.15300586 125.11295812 6.03827396 117.52709961 6.10957336 C116.22161163 6.11757462 114.91612366 6.12557587 113.57107544 6.13381958 C110.02373314 6.15580492 106.47647582 6.18451269 102.92919564 6.21477461 C99.20006966 6.2456843 95.47090567 6.27115238 91.741745 6.29747009 C85.48542947 6.34249402 79.22916079 6.39195339 72.97290039 6.44404602 C65.75595331 6.50407895 58.53898034 6.55685714 51.32195026 6.60581434 C44.35352101 6.6532699 37.38514153 6.70605242 30.41676903 6.76117325 C27.46204788 6.78444248 24.50732214 6.80583591 21.55257607 6.82567978 C17.42423598 6.85367511 13.29599798 6.88944806 9.16772461 6.92597961 C7.34326561 6.93696938 7.34326561 6.93696938 5.48194885 6.94818115 C-0.41955629 7.00679894 -6.12226771 7.25478787 -11.95849609 8.14717102 C-12.28849609 9.13717102 -12.61849609 10.12717102 -12.95849609 11.14717102 C-12.42123714 7.77011477 -11.84784986 4.45048502 -10.95849609 1.14717102 C-7.24645898 0.29086359 -3.80620305 0.0156997 0 0 Z " fill="#189F8D" transform="translate(39.95849609375,11.852828979492188)"/>
<path d="M0 0 C0.16271209 8.07583258 0.28682812 16.15097232 0.3626852 24.2280426 C0.39910707 27.97928051 0.44844648 31.72939124 0.52807617 35.47998047 C0.60454346 39.10460355 0.64607325 42.72814777 0.6641407 46.35351562 C0.67700314 47.73145522 0.70212196 49.10934051 0.7401104 50.48681641 C1.06088024 62.60817152 1.06088024 62.60817152 -3.29272461 67.72265625 C-5.10215759 69.46899414 -5.10215759 69.46899414 -7 71 C-7.6797438 71.54841553 -8.35948761 72.09683105 -9.05982971 72.66186523 C-11.35017588 74.24151618 -13.26732538 74.62046186 -16 75 C-16 74.34 -16 73.68 -16 73 C-16.70844968 73.00184359 -17.41689936 73.00368717 -18.14681721 73.00558662 C-35.3723551 73.04972485 -52.59787865 73.08283667 -69.82346058 73.10362434 C-78.15356792 73.11394389 -86.48363756 73.12801716 -94.8137207 73.15087891 C-102.07287629 73.17079204 -109.33200457 73.1837115 -116.5911867 73.18817699 C-120.436083 73.1907879 -124.28090118 73.19693869 -128.12577248 73.21146011 C-131.74297008 73.22501127 -135.36005718 73.22922767 -138.97727776 73.22621536 C-140.94122601 73.22702995 -142.90516217 73.23780448 -144.86907959 73.24884033 C-146.03435684 73.246091 -147.19963409 73.24334167 -148.40022278 73.24050903 C-149.41511685 73.24235262 -150.43001093 73.24419621 -151.47565937 73.24609566 C-154 73 -154 73 -157 71 C-141.82252535 70.09239512 -126.69563925 69.87506836 -111.49322319 69.89246559 C-107.52922041 69.89458026 -103.56531192 69.88681234 -99.60133362 69.87467957 C-98.92572858 69.87265764 -98.25012354 69.87063571 -97.55404562 69.86855251 C-96.17616451 69.86438708 -94.79828352 69.86018435 -93.42040265 69.85594499 C-84.22853206 69.82798061 -75.03687997 69.80784251 -65.8449707 69.82495117 C-59.58823413 69.83649919 -53.33192428 69.82698103 -47.07526451 69.79289359 C-43.77978944 69.77577434 -40.48525947 69.7726818 -37.18975639 69.789011 C-33.53524082 69.80580297 -29.88267166 69.78582836 -26.22827148 69.75708008 C-24.60217201 69.77776802 -24.60217201 69.77776802 -22.94322205 69.7988739 C-20.16487786 69.75630913 -17.69636225 69.67070702 -15 69 C-12.28686597 66.28640636 -12.28686597 66.28640636 -11 63 C-10.443125 62.113125 -9.88625 61.22625 -9.3125 60.3125 C-7.26267456 56.7009028 -6.86253576 53.87536483 -6.79467773 49.79418945 C-6.77473251 48.73331619 -6.75478729 47.67244293 -6.73423767 46.579422 C-6.71752518 45.43559555 -6.70081268 44.2917691 -6.68359375 43.11328125 C-6.6524221 41.35506294 -6.6524221 41.35506294 -6.62062073 39.56132507 C-6.55516182 35.81177714 -6.49625704 32.06215837 -6.4375 28.3125 C-6.39431132 25.77277909 -6.35069692 23.23306538 -6.30664062 20.69335938 C-6.19948414 14.46231478 -6.0977108 8.23119949 -6 2 C-1.125 0 -1.125 0 0 0 Z " fill="#1E9E8E" transform="translate(192,173)"/>
<path d="M0 0 C1.70977272 -0.00845947 1.70977272 -0.00845947 3.4540863 -0.01708984 C4.71074097 -0.01304138 5.96739563 -0.00899292 7.26213074 -0.00482178 C9.24025002 -0.01007874 9.24025002 -0.01007874 11.2583313 -0.01544189 C14.88243711 -0.02458111 18.5064294 -0.02101469 22.13053727 -0.01468372 C25.92120567 -0.00962847 29.71186419 -0.01431414 33.50253296 -0.01745605 C39.87228646 -0.02109842 46.24199364 -0.01629092 52.61174011 -0.0067749 C59.97348275 0.00409619 67.33511449 0.00059498 74.69685441 -0.01042771 C81.01540157 -0.01950961 87.33391537 -0.02078103 93.65246695 -0.01555037 C97.42695824 -0.01243384 101.20139746 -0.01201236 104.97588539 -0.01862335 C108.52747712 -0.02440881 112.07892633 -0.02037799 115.6305027 -0.00883484 C117.55347626 -0.00493595 119.47646189 -0.01086469 121.39942932 -0.01708984 C122.54773727 -0.0114502 123.69604523 -0.00581055 124.87915039 0 C126.37270664 0.00113108 126.37270664 0.00113108 127.89643574 0.002285 C130.80653841 0.27021641 132.9863078 1.0385058 135.63005066 2.25396729 C132.56471902 3.78663311 129.36250794 3.35673199 126.00505066 3.31646729 C125.29864441 3.31195557 124.59223816 3.30744385 123.86442566 3.30279541 C122.11959791 3.29100603 120.37481366 3.27307053 118.63005066 3.25396729 C122.66131676 6.64059399 125.48687104 6.82536898 130.63005066 7.25396729 C130.63005066 7.58396729 130.63005066 7.91396729 130.63005066 8.25396729 C86.08005066 8.25396729 41.53005066 8.25396729 -4.36994934 8.25396729 C-4.36994934 7.92396729 -4.36994934 7.59396729 -4.36994934 7.25396729 C-3.37373566 7.23335236 -2.37752197 7.21273743 -1.35112 7.1914978 C8.09249058 6.99496301 17.53586867 6.78940731 26.97909737 6.57528877 C31.83255514 6.4655228 36.68603797 6.3588041 41.53971863 6.25933838 C46.23428002 6.16301647 50.92858995 6.05831285 55.6228447 5.94808578 C57.40308646 5.90770142 59.18339649 5.87020693 60.96376419 5.83581924 C63.48054101 5.78668595 65.99686625 5.72674959 68.51335144 5.66461182 C69.22977814 5.65310089 69.94620483 5.64158997 70.68434143 5.62973022 C77.85785651 5.43170527 84.36305523 4.29210949 91.63005066 3.25396729 C58.96005066 2.92396729 26.29005066 2.59396729 -7.36994934 2.25396729 C-4.75323337 -0.36274868 -3.64730431 0.00276526 0 0 Z " fill="#062E3A" transform="translate(41.36994934082031,17.74603271484375)"/>
<path d="M0 0 C1.13457642 -0.00630432 2.26915283 -0.01260864 3.43811035 -0.019104 C5.28342346 -0.01303131 5.28342346 -0.01303131 7.16601562 -0.00683594 C9.0524176 -0.00970612 9.0524176 -0.00970612 10.97692871 -0.01263428 C13.64019438 -0.01399743 16.30309492 -0.011291 18.96630859 -0.00195312 C22.38297957 0.00944154 25.79933635 0.00288159 29.21599579 -0.00909805 C32.47018042 -0.01805547 35.7243269 -0.01178722 38.97851562 -0.00683594 C40.20872437 -0.0108844 41.43893311 -0.01493286 42.7064209 -0.019104 C44.40828552 -0.00964752 44.40828552 -0.00964752 46.14453125 0 C47.14665649 0.00159119 48.14878174 0.00318237 49.18127441 0.00482178 C51.57226562 0.25878906 51.57226562 0.25878906 53.57226562 2.25878906 C53.24226563 3.57878906 52.91226563 4.89878906 52.57226562 6.25878906 C33.10226563 6.25878906 13.63226563 6.25878906 -6.42773438 6.25878906 C-6.75773437 4.93878906 -7.08773437 3.61878906 -7.42773438 2.25878906 C-4.80358682 -0.36535849 -3.65792375 0.0058081 0 0 Z " fill="#778EA5" transform="translate(81.427734375,103.7412109375)"/>
<path d="M0 0 C0.33 0.99 0.66 1.98 1 3 C0.01 3.66 -0.98 4.32 -2 5 C-2 6.32 -2 7.64 -2 9 C-3.31787285 10.02028865 -4.65210653 11.01971384 -6 12 C-6.79623822 14.09415804 -6.79623822 14.09415804 -7 16 C-6.401875 15.814375 -5.80375 15.62875 -5.1875 15.4375 C-3 15 -3 15 0 16 C0.33 15.01 0.66 14.02 1 13 C2.32 13 3.64 13 5 13 C5.20625 12.4225 5.4125 11.845 5.625 11.25 C7.50927325 8.16664377 9.94643233 6.86953123 13 5 C13.99 4.34 14.98 3.68 16 3 C14.48744324 6.85014448 12.19769213 8.47159227 9 11 C7.31267723 12.98260426 5.64633943 14.9832342 4 17 C2.3540349 18.68711423 0.68762851 20.3545622 -1 22 C-2.2065625 23.2375 -2.2065625 23.2375 -3.4375 24.5 C-11.125 32 -11.125 32 -14 32 C-14 32.66 -14 33.32 -14 34 C-17 36 -17 36 -20 36 C-20.71404789 27.65357353 -19.3449235 22.15360619 -15 15 C-14.01 15 -13.02 15 -12 15 C-11.66355469 14.18789062 -11.66355469 14.18789062 -11.3203125 13.359375 C-9.58851134 10.26467706 -7.28380732 7.82074395 -4.875 5.25 C-4.40707031 4.74339844 -3.93914062 4.23679688 -3.45703125 3.71484375 C-2.30873459 2.47280859 -1.15491328 1.23588506 0 0 Z " fill="#239B8F" transform="translate(206,132)"/>
<path d="M0 0 C19.47 0 38.94 0 59 0 C59 1.65 59 3.3 59 5 C57.28435166 6.71564834 55.02783909 6.13637489 52.68579102 6.14526367 C51.55113907 6.15164352 50.41648712 6.15802338 49.24745178 6.16459656 C48.01208176 6.16570938 46.77671173 6.1668222 45.50390625 6.16796875 C44.24488998 6.17129715 42.98587372 6.17462555 41.68870544 6.17805481 C39.01956665 6.18312943 36.35052959 6.18589414 33.68139648 6.18530273 C30.25687285 6.1852011 26.83255649 6.19885201 23.40808201 6.21607494 C20.14836436 6.22985116 16.88864908 6.22928326 13.62890625 6.23046875 C12.39556046 6.23765427 11.16221466 6.24483978 9.89149475 6.25224304 C8.18478859 6.2476281 8.18478859 6.2476281 6.44360352 6.24291992 C4.93589134 6.24505745 4.93589134 6.24505745 3.39772034 6.24723816 C1 6 1 6 -1 4 C-0.67 2.68 -0.34 1.36 0 0 Z " fill="#798FA7" transform="translate(75,141)"/>
<path d="M0 0 C19.47 0 38.94 0 59 0 C59 1.65 59 3.3 59 5 C57.28435166 6.71564834 55.02783909 6.13637489 52.68579102 6.14526367 C51.55113907 6.15164352 50.41648712 6.15802338 49.24745178 6.16459656 C48.01208176 6.16570938 46.77671173 6.1668222 45.50390625 6.16796875 C44.24488998 6.17129715 42.98587372 6.17462555 41.68870544 6.17805481 C39.01956665 6.18312943 36.35052959 6.18589414 33.68139648 6.18530273 C30.25687285 6.1852011 26.83255649 6.19885201 23.40808201 6.21607494 C20.14836436 6.22985116 16.88864908 6.22928326 13.62890625 6.23046875 C12.39556046 6.23765427 11.16221466 6.24483978 9.89149475 6.25224304 C8.18478859 6.2476281 8.18478859 6.2476281 6.44360352 6.24291992 C4.93589134 6.24505745 4.93589134 6.24505745 3.39772034 6.24723816 C1 6 1 6 -1 4 C-0.67 2.68 -0.34 1.36 0 0 Z " fill="#768CA3" transform="translate(75,90)"/>
<path d="M0 0 C1.2016832 -0.00137466 2.40336639 -0.00274933 3.64146423 -0.00416565 C4.95129272 -0.00057037 6.26112122 0.0030249 7.61064148 0.00672913 C9.01037596 0.00701134 10.41011058 0.00685259 11.80984497 0.00628662 C15.60282936 0.00599999 19.39578206 0.01187511 23.18875909 0.01886058 C27.15524653 0.02511638 31.12173471 0.02569968 35.08822632 0.02688599 C42.59625187 0.02999273 50.10426284 0.03819728 57.61228198 0.04823548 C66.16120545 0.05941699 74.71012963 0.0649122 83.25905859 0.06993091 C100.84200025 0.08038043 118.42492772 0.09796718 136.00785828 0.12025452 C136.00785828 0.45025452 136.00785828 0.78025452 136.00785828 1.12025452 C66.70785828 1.61525452 66.70785828 1.61525452 -3.99214172 2.12025452 C-3.99214172 3.11025452 -3.99214172 4.10025452 -3.99214172 5.12025452 C40.55785828 5.12025452 85.10785828 5.12025452 131.00785828 5.12025452 C131.00785828 5.45025452 131.00785828 5.78025452 131.00785828 6.12025452 C130.31947876 6.12448646 129.63109924 6.1287184 128.92185974 6.13307858 C112.15350585 6.23649124 95.38519488 6.34514461 78.61691284 6.45959377 C70.50782168 6.51481535 62.39872612 6.5682788 54.28959656 6.61756897 C47.21970979 6.66054675 40.14985396 6.70685833 33.08001518 6.75713307 C29.338403 6.7836249 25.59679652 6.8084745 21.85514832 6.82932854 C17.6729325 6.85270065 13.49080267 6.88351733 9.30863953 6.91493225 C8.07505203 6.92068771 6.84146454 6.92644318 5.57049561 6.93237305 C-0.37322877 6.98310251 -6.11478838 7.21664936 -11.99214172 8.12025452 C-12.32214172 9.11025452 -12.65214172 10.10025452 -12.99214172 11.12025452 C-12.45488277 7.74319826 -11.88149549 4.42356852 -10.99214172 1.12025452 C-7.26394887 0.25641856 -3.82344539 -0.00338059 0 0 Z " fill="#30978E" transform="translate(39.99214172363281,11.879745483398438)"/>
<path d="M0 0 C1.21413071 -0.00708481 2.42826141 -0.01416962 3.67918396 -0.02146912 C5.03195227 -0.01917505 6.38472024 -0.01666532 7.73748779 -0.01396179 C9.15660369 -0.0183072 10.57571724 -0.02348978 11.99482727 -0.02944946 C15.85658509 -0.04287309 19.71824524 -0.04341414 23.58002186 -0.04088616 C26.80303544 -0.03981815 30.02602913 -0.04469576 33.24903846 -0.04949158 C40.85506658 -0.06059962 48.46104532 -0.06101772 56.06707764 -0.05497742 C63.91166424 -0.04894329 71.75607123 -0.06123132 79.60062718 -0.08254749 C86.33447515 -0.10017224 93.068266 -0.10616324 99.80213618 -0.10290974 C103.82428918 -0.10109722 107.84631423 -0.10372935 111.86844635 -0.11762428 C115.65400415 -0.13021132 119.43928277 -0.12825039 123.22483635 -0.11521339 C124.61234316 -0.11284949 125.99986966 -0.11557569 127.3873539 -0.12383652 C129.28563522 -0.13432094 131.18399621 -0.12439124 133.08227539 -0.11352539 C134.67400259 -0.113777 134.67400259 -0.113777 136.29788589 -0.1140337 C143.64412088 0.80443618 148.8596932 5.6396853 153.29510498 11.26069641 C154.29510498 14.76069641 154.29510498 14.76069641 154.29510498 17.26069641 C153.63510498 17.26069641 152.97510498 17.26069641 152.29510498 17.26069641 C151.63510498 18.58069641 150.97510498 19.90069641 150.29510498 21.26069641 C149.30510498 20.93069641 148.31510498 20.60069641 147.29510498 20.26069641 C147.29510498 19.27069641 147.29510498 18.28069641 147.29510498 17.26069641 C146.73822998 17.05444641 146.18135498 16.84819641 145.60760498 16.63569641 C143.29510498 15.26069641 143.29510498 15.26069641 140.85760498 12.26069641 C138.33136186 9.30314348 136.95618716 8.30671989 133.29510498 7.26069641 C133.29510498 6.93069641 133.29510498 6.60069641 133.29510498 6.26069641 C136.59510498 6.59069641 139.89510498 6.92069641 143.29510498 7.26069641 C143.29510498 6.60069641 143.29510498 5.94069641 143.29510498 5.26069641 C139.00510498 4.60069641 134.71510498 3.94069641 130.29510498 3.26069641 C130.29510498 2.93069641 130.29510498 2.60069641 130.29510498 2.26069641 C84.75510498 2.26069641 39.21510498 2.26069641 -7.70489502 2.26069641 C-5.03088926 -0.41330935 -3.7380975 0.0072419 0 0 Z " fill="#0E6360" transform="translate(37.70489501953125,10.739303588867188)"/>
<path d="M0 0 C3.12096294 0.18358606 4.67290957 0.39136398 7.1875 2.1875 C9.51500684 5.21325889 9.67620266 8.57311011 9.55859375 12.28125 C9.1875 14.1875 9.1875 14.1875 7.1875 16.6875 C3.36764421 18.5974279 0.36850384 19.3001865 -3.8125 18.1875 C-7.10076203 15.31027073 -8.56181432 13.41585983 -9.4375 9.125 C-8.60880875 5.23015113 -6.79303881 3.73186239 -3.8125 1.1875 C-2.8125 0.1875 -2.8125 0.1875 0 0 Z " fill="#16A291" transform="translate(160.8125,146.8125)"/>
<path d="M0 0 C0 3 0 3 -1.3671875 4.40234375 C-1.90601563 4.92957031 -2.44484375 5.45679688 -3 6 C-4.17082023 8.19267376 -4.17082023 8.19267376 -5.125 10.5625 C-5.45757813 11.34753906 -5.79015625 12.13257813 -6.1328125 12.94140625 C-6.41898438 13.62074219 -6.70515625 14.30007812 -7 15 C-7.33 15.66 -7.66 16.32 -8 17 C-8.10208493 19.55139292 -8.1433848 22.07574729 -8.14044189 24.62759399 C-8.14341302 25.42403458 -8.14638414 26.22047517 -8.1494453 27.04105031 C-8.15815566 29.72480574 -8.15964253 32.40851669 -8.16113281 35.09228516 C-8.16575945 37.01061092 -8.1707839 38.92893576 -8.17617798 40.84725952 C-8.18932162 46.0706518 -8.19575113 51.29403122 -8.20018864 56.51743746 C-8.20311711 59.78026662 -8.20722155 63.04309226 -8.21169281 66.30591965 C-8.22537491 76.51264926 -8.23503723 86.71937081 -8.2388947 96.92610896 C-8.24337285 108.71102514 -8.26090651 120.49582518 -8.2898953 132.28070605 C-8.31151666 141.38653095 -8.32159928 150.4923232 -8.32293582 159.5981735 C-8.32398382 165.03779076 -8.32989018 170.47729895 -8.34775543 175.91688919 C-8.36424317 181.0369982 -8.36638813 186.15691628 -8.35761642 191.27704239 C-8.35684634 193.15393078 -8.36118494 195.03082946 -8.37107468 196.90769196 C-8.38380892 199.4755223 -8.37790941 202.04267796 -8.36749268 204.61050415 C-8.37554908 205.34846305 -8.38360548 206.08642194 -8.39190602 206.84674323 C-8.35530281 210.72066896 -7.85970276 213.72367891 -6.41453171 217.33684349 C-5 221 -5 221 -6 224 C-11.38095375 215.01036179 -10.55716598 205.76694972 -10.50170898 195.62231445 C-10.50549553 193.65044774 -10.51099833 191.6785837 -10.51808167 189.70672607 C-10.53200691 184.37013567 -10.52088822 179.03386872 -10.50437045 173.69729638 C-10.49049184 168.10672281 -10.49698301 162.51616748 -10.50050354 156.92558289 C-10.50320276 147.54172569 -10.48975247 138.15799663 -10.46655273 128.77416992 C-10.43992161 117.92736645 -10.43820438 107.08077685 -10.4499411 96.23395187 C-10.46072025 85.79174014 -10.45453221 75.34960572 -10.44038582 64.90740013 C-10.43462957 60.46613931 -10.43470582 56.02493513 -10.43945122 51.58367348 C-10.44422388 46.35592132 -10.43410718 41.12840341 -10.41249657 35.9006958 C-10.40693336 33.9826607 -10.40645912 32.06460307 -10.41144943 30.14656639 C-10.41740794 27.5280186 -10.40488656 24.91018569 -10.38768005 22.29170227 C-10.3936901 21.53323779 -10.39970014 20.77477331 -10.40589231 19.99332505 C-10.32314799 13.06629688 -7.89540188 8.64025111 -3.3125 3.625 C-2.68988281 2.93664062 -2.06726563 2.24828125 -1.42578125 1.5390625 C-0.95527344 1.03117187 -0.48476563 0.52328125 0 0 Z " fill="#34988F" transform="translate(26,15)"/>
<path d="M0 0 C13.86 0 27.72 0 42 0 C42 1.65 42 3.3 42 5 C28.14 5 14.28 5 0 5 C-0.33 4.01 -0.66 3.02 -1 2 C-0.67 1.34 -0.34 0.68 0 0 Z " fill="#7D95AC" transform="translate(75,156)"/>
<path d="M0 0 C0 0.66 0 1.32 0 2 C16.5 2 33 2 50 2 C50 2.33 50 2.66 50 3 C5.45 3 -39.1 3 -85 3 C-85 2.67 -85 2.34 -85 2 C-74.36035031 1.73880254 -63.72069107 1.47799773 -53.0810194 1.21769714 C-48.14084084 1.09682279 -43.20066569 0.97581211 -38.26049805 0.85449219 C-33.49485858 0.73746328 -28.72921054 0.62078945 -23.96355629 0.50436401 C-22.14345298 0.45983583 -20.32335281 0.41517872 -18.50325584 0.37039185 C-15.95815203 0.30778665 -13.41303751 0.24563581 -10.86791992 0.18359375 C-9.73395782 0.15554153 -9.73395782 0.15554153 -8.5770874 0.12692261 C-5.71709741 0.05758122 -2.86096527 0 0 0 Z " fill="#0B233B" transform="translate(122,23)"/>
<path d="M0 0 C9.36729428 4.14200087 16.77246032 13.52989959 23.3515625 21.12890625 C25.15332526 23.17403506 27.033852 25.11249792 29 27 C28.01 27.33 27.02 27.66 26 28 C25.60167969 27.50628906 25.20335937 27.01257813 24.79296875 26.50390625 C24.26316406 25.86324219 23.73335937 25.22257812 23.1875 24.5625 C22.66542969 23.92441406 22.14335937 23.28632812 21.60546875 22.62890625 C19.99165589 20.7451725 19.99165589 20.7451725 17 20 C14 16.55555556 14 16.55555556 14 14 C12.8553125 13.6596875 12.8553125 13.6596875 11.6875 13.3125 C9 12 9 12 7.4375 9.375 C6.963125 8.59125 6.48875 7.8075 6 7 C4.68 7 3.36 7 2 7 C2.99 11.95 3.98 16.9 5 22 C1.89448334 18.89448334 1.18676066 17.10801767 0 13 C-0.06058594 13.63808594 -0.12117187 14.27617188 -0.18359375 14.93359375 C-0.26738281 15.75988281 -0.35117188 16.58617188 -0.4375 17.4375 C-0.51871094 18.26121094 -0.59992188 19.08492187 -0.68359375 19.93359375 C-1 22 -1 22 -2 23 C-3.99958364 23.04080783 -6.00045254 23.04254356 -8 23 C-8 22.67 -8 22.34 -8 22 C-6.35 22 -4.7 22 -3 22 C-3 15.07 -3 8.14 -3 1 C-2.34 1.33 -1.68 1.66 -1 2 C-0.67 1.34 -0.34 0.68 0 0 Z " fill="#176469" transform="translate(194,88)"/>
<path d="M0 0 C0.33 0.99 0.66 1.98 1 3 C0.401875 3.556875 -0.19625 4.11375 -0.8125 4.6875 C-3.09925926 6.87553732 -3.09925926 6.87553732 -4.27961445 9.60932446 C-6 12 -6 12 -8.57119274 12.59962177 C-10.1267184 12.58164681 -10.1267184 12.58164681 -11.71366882 12.56330872 C-12.90418854 12.56176788 -14.09470825 12.56022705 -15.32130432 12.55863953 C-17.28280678 12.51764885 -17.28280678 12.51764885 -19.28393555 12.47583008 C-20.67350713 12.46455876 -22.06309815 12.45549804 -23.45269775 12.44848633 C-27.22768067 12.42315621 -31.00164538 12.36683576 -34.77618384 12.3050406 C-38.71982788 12.24571666 -42.66369072 12.21476441 -46.60762024 12.18083191 C-54.07706735 12.11224015 -61.54596463 12.01804975 -69.01500303 11.91471261 C-77.51774146 11.79831648 -86.02069917 11.71037975 -94.52379549 11.62486041 C-112.01630176 11.44829154 -129.50819529 11.23589533 -147 11 C-147 10.67 -147 10.34 -147 10 C-146.31162048 9.99853344 -145.62324097 9.99706688 -144.91400146 9.99555588 C-128.1455514 9.95846531 -111.37733586 9.89942093 -94.60905457 9.81609726 C-86.49994587 9.77632864 -78.39093391 9.74392514 -70.28173828 9.72900391 C-63.21176681 9.71597604 -56.14200838 9.68898262 -49.07215691 9.64538693 C-45.33047185 9.62279738 -41.58904933 9.6070878 -37.84729004 9.60811615 C-33.66482023 9.60900347 -29.48312257 9.57870494 -25.30078125 9.54589844 C-24.06719376 9.5509288 -22.83360626 9.55595917 -21.56263733 9.56114197 C-14.57760944 9.47640861 -9.91920477 8.80571531 -4 5 C-1.5404226 2.43190172 -1.5404226 2.43190172 0 0 Z " fill="#034949" transform="translate(183,231)"/>
<path d="M0 0 C1.19529824 3.58589471 0.8077623 5.71485916 0.25 9.4375 C0.01023438 11.13712891 0.01023438 11.13712891 -0.234375 12.87109375 C-0.99917045 15.99660985 -1.87912507 17.62858216 -4 20 C-3.67 20.66 -3.34 21.32 -3 22 C-3.66 22 -4.32 22 -5 22 C-5 22.66 -5 23.32 -5 24 C-8 26 -8 26 -11 26 C-11.71404789 17.65357353 -10.3449235 12.15360619 -6 5 C-5.01 5 -4.02 5 -3 5 C-2.690625 4.360625 -2.38125 3.72125 -2.0625 3.0625 C-1 1 -1 1 0 0 Z " fill="#145562" transform="translate(197,142)"/>
<path d="M0 0 C23.43 0 46.86 0 71 0 C71 0.33 71 0.66 71 1 C47.9932523 2.04173135 25.02585752 2.11377277 2 2 C2 4.64 2 7.28 2 10 C16.85 10.33 31.7 10.66 47 11 C47 11.33 47 11.66 47 12 C31.49 12 15.98 12 0 12 C0 8.04 0 4.08 0 0 Z " fill="#2D8A8C" transform="translate(49,119)"/>
<path d="M0 0 C46.86 0 93.72 0 142 0 C140.68 1.32 139.36 2.64 138 4 C138 3.01 138 2.02 138 1 C136.53163193 1.01879211 136.53163193 1.01879211 135.03359985 1.03796387 C122.56412766 1.19701795 110.0945906 1.35052158 97.625 1.5 C96.13922014 1.51781588 96.13922014 1.51781588 94.62342453 1.53599167 C63.41392067 1.90842315 32.21201165 2.15433859 1 2 C0.67 1.34 0.34 0.68 0 0 Z " fill="#002D34" transform="translate(64,132)"/>
<path d="M0 0 C0.33 0 0.66 0 1 0 C1.05062952 7.35063746 1.08570377 14.70123011 1.10986328 22.05200195 C1.11993288 24.55364665 1.13358934 27.05527955 1.15087891 29.55688477 C1.17508492 33.14862986 1.18647346 36.7402196 1.1953125 40.33203125 C1.20563507 41.45398392 1.21595764 42.57593658 1.22659302 43.73188782 C1.22674408 44.77274033 1.22689514 45.81359283 1.22705078 46.88598633 C1.231492 47.80309891 1.23593323 48.72021149 1.24050903 49.66511536 C1 52 1 52 -1 55 C-1.19344107 47.64964128 -1.37088625 40.29902235 -1.53710938 32.94799805 C-1.59557968 30.44628112 -1.65773863 27.94464762 -1.72363281 25.44311523 C-1.81760428 21.85155422 -1.8983925 18.25990405 -1.9765625 14.66796875 C-2.00875885 13.54601608 -2.0409552 12.42406342 -2.0741272 11.26811218 C-2.10438492 9.70683342 -2.10438492 9.70683342 -2.13525391 8.11401367 C-2.15746002 7.19690109 -2.17966614 6.27978851 -2.20254517 5.33488464 C-2 3 -2 3 0 0 Z " fill="#00273F" transform="translate(185,176)"/>
<path d="M0 0 C3.5 1.3125 3.5 1.3125 6 3 C6.89214652 5.67643957 7.13540211 7.25384378 7.125 10 C7.12886719 11.0209375 7.12886719 11.0209375 7.1328125 12.0625 C6.89445056 15.53978004 6.13097166 16.87910309 3.5625 19.25 C-1.26902103 21.62337875 -4.85633703 21.32114631 -10 20 C-12.625 18.625 -12.625 18.625 -14 16 C-14.84744454 10.66027661 -14.9079812 6.49377553 -12.0625 1.8125 C-7.90541496 -0.64781563 -4.71625114 -0.77084597 0 0 Z M-12 5 C-13.45147903 7.90295805 -13.37239025 9.77261779 -13 13 C-10.44654636 17.34399059 -10.44654636 17.34399059 -6.0625 19.515625 C-2.45013648 19.70718973 -0.25991797 19.12995899 3 17.5 C5.45756051 14.42804936 5.5563276 12.72781757 5.29296875 8.8984375 C4.92629481 6.52239035 4.47583974 4.91859166 3 3 C-2.50886397 -0.93490283 -7.43349847 0.56396994 -12 5 Z " fill="#175666" transform="translate(165,146)"/>
<path d="M0 0 C0.33 0 0.66 0 1 0 C1.33 24.42 1.66 48.84 2 74 C2.99 72.68 3.98 71.36 5 70 C5 72.97 5 75.94 5 79 C3.35 79 1.7 79 0 79 C0 52.93 0 26.86 0 0 Z " fill="#369891" transform="translate(186,31)"/>
<path d="M0 0 C0.33 0 0.66 0 1 0 C1.33 5.28 1.66 10.56 2 16 C2.66 16 3.32 16 4 16 C3.67 18.97 3.34 21.94 3 25 C3.66 24.34 4.32 23.68 5 23 C5 26.4810594 4.41017908 28.51611009 2.15234375 31.1796875 C0.1429518 33.17135994 -1.89457519 35.11039323 -4 37 C-4.66 36.67 -5.32 36.34 -6 36 C-5.67 35.34 -5.34 34.68 -5 34 C-4.34 34 -3.68 34 -3 34 C-3 33.34 -3 32.68 -3 32 C-2.34 32 -1.68 32 -1 32 C-0.814375 30.72125 -0.62875 29.4425 -0.4375 28.125 C-0.33308594 27.40570313 -0.22867188 26.68640625 -0.12109375 25.9453125 C0.1684297 23.91859333 0.1684297 23.91859333 -1 22 C-1.01614884 20.3303193 -0.96515778 18.65971714 -0.87890625 16.9921875 C-0.83056641 16.00605469 -0.78222656 15.01992187 -0.73242188 14.00390625 C-0.67634766 12.97136719 -0.62027344 11.93882812 -0.5625 10.875 C-0.51029297 9.83472656 -0.45808594 8.79445312 -0.40429688 7.72265625 C-0.27439054 5.14814884 -0.13941748 2.57400704 0 0 Z " fill="#219D8D" transform="translate(187,209)"/>
<path d="M0 0 C0.495 1.485 0.495 1.485 1 3 C0.401875 3.556875 -0.19625 4.11375 -0.8125 4.6875 C-3.39488039 7.25107069 -3.39488039 7.25107069 -6 12 C-30.255 11.505 -30.255 11.505 -55 11 C-55 10.67 -55 10.34 -55 10 C-53.10894531 9.98598145 -53.10894531 9.98598145 -51.1796875 9.97167969 C-46.47539722 9.93162628 -41.77175037 9.86582499 -37.06787109 9.79248047 C-35.03703108 9.76435965 -33.00608343 9.74310114 -30.97509766 9.72900391 C-28.04534145 9.70745102 -25.11686735 9.66073778 -22.1875 9.609375 C-20.83857666 9.60753204 -20.83857666 9.60753204 -19.46240234 9.60565186 C-13.53754299 9.4698484 -8.93879705 8.38754603 -4 5 C-1.5404226 2.43190172 -1.5404226 2.43190172 0 0 Z " fill="#034445" transform="translate(183,231)"/>
<path d="M0 0 C5 5 5 5 6.5 6.6875 C8.47092441 8.41205886 10.54765165 9.13836409 13 10 C13 10.33 13 10.66 13 11 C7.555 11.495 7.555 11.495 2 12 C2.33 12.66 2.66 13.32 3 14 C-0.40320742 12.98823563 -1.75725331 12.35156418 -3.8125 9.375 C-4.204375 8.59125 -4.59625 7.8075 -5 7 C-2.525 7.99 -2.525 7.99 0 9 C0.33 8.34 0.66 7.68 1 7 C1.33 6.67 1.66 6.34 2 6 C1.34 5.34 0.68 4.68 0 4 C0 2.68 0 1.36 0 0 Z " fill="#15A08A" transform="translate(25,232)"/>
<path d="M0 0 C2.125 0.375 2.125 0.375 4 1 C3.01 2.485 3.01 2.485 2 4 C2.66 4 3.32 4 4 4 C4 4.66 4 5.32 4 6 C3.34 6 2.68 6 2 6 C1.67 8.31 1.34 10.62 1 13 C-1.31 13 -3.62 13 -6 13 C-5.75 10.625 -5.75 10.625 -5 8 C-2.9375 6.6875 -2.9375 6.6875 -1 6 C-1.20625 5.38125 -1.4125 4.7625 -1.625 4.125 C-1.74875 3.42375 -1.8725 2.7225 -2 2 C-1.34 1.34 -0.68 0.68 0 0 Z " fill="#12A794" transform="translate(205,135)"/>
<path d="M0 0 C4.06794326 1.87751227 6.3280413 3.82010324 8 8 C7.94320319 10.77788023 7.5126624 13.25026531 7 16 C6.01 16 5.02 16 4 16 C3.67 13.36 3.34 10.72 3 8 C2.34 8 1.68 8 1 8 C1 7.34 1 6.68 1 6 C0.34 6 -0.32 6 -1 6 C-1.33 4.35 -1.66 2.7 -2 1 C-1.34 0.67 -0.68 0.34 0 0 Z " fill="#16A493" transform="translate(197,93)"/>
<path d="M0 0 C0.66 0.33 1.32 0.66 2 1 C1.608125 2.216875 1.21625 3.43375 0.8125 4.6875 C0.03761691 7.82605524 -0.05881838 8.82354485 1 12 C2.8996487 14.26499954 2.8996487 14.26499954 6 14.625 C9.20502824 14.31467832 9.20502824 14.31467832 10.75 11.5 C11.36875 10.2625 11.36875 10.2625 12 9 C12.66 9 13.32 9 14 9 C14 7.35 14 5.7 14 4 C14.33 4 14.66 4 15 4 C15.60377358 11.24528302 15.60377358 11.24528302 13 14.5 C9.18014421 16.4099279 6.18100384 17.1126865 2 16 C-1.33018206 13.0860907 -2.7975678 11.26520125 -3.5 6.875 C-2.9583607 3.76057405 -2.12331115 2.30025374 0 0 Z " fill="#289692" transform="translate(155,149)"/>
<path d="M0 0 C0.33 0 0.66 0 1 0 C1.76681614 11.63856502 1.76681614 11.63856502 -0.11328125 14.9765625 C-1.5 16.3125 -1.5 16.3125 -4 18 C-4.55697798 6.40660653 -4.55697798 6.40660653 -1 1 C-0.67 0.67 -0.34 0.34 0 0 Z " fill="#298384" transform="translate(190,150)"/>
<path d="M0 0 C3.35111834 2.23407889 4.81553956 3.26215824 5.8125 7.25 C5.874375 8.1575 5.93625 9.065 6 10 C5.34 10 4.68 10 4 10 C3.34 11.32 2.68 12.64 2 14 C1.01 13.67 0.02 13.34 -1 13 C-1 12.01 -1 11.02 -1 10 C-2.32 9.34 -3.64 8.68 -5 8 C-5 7.01 -5 6.02 -5 5 C-4.071875 5.7425 -4.071875 5.7425 -3.125 6.5 C-1.16119096 8.19222773 -1.16119096 8.19222773 1 8 C1.93065133 5.39417629 2.14917407 4.35801776 1.0625 1.75 C0.711875 1.1725 0.36125 0.595 0 0 Z " fill="#156C68" transform="translate(186,18)"/>
<path d="M0 0 C1 3 1 3 0 6 C-0.66 6 -1.32 6 -2 6 C-2.33 9.63 -2.66 13.26 -3 17 C-3.66 17 -4.32 17 -5 17 C-5.54466387 12.915021 -6 9.1274515 -6 5 C-5.01 5 -4.02 5 -3 5 C-2.690625 4.360625 -2.38125 3.72125 -2.0625 3.0625 C-1 1 -1 1 0 0 Z " fill="#204E61" transform="translate(197,142)"/>
<path d="M0 0 C-0.33 2.31 -0.66 4.62 -1 7 C0.98 6.67 2.96 6.34 5 6 C5 6.66 5 7.32 5 8 C3.34151823 9.01351664 1.67334039 10.01120795 0 11 C-1.36984198 12.29579647 -2.7151049 13.61992749 -4 15 C-4 11.33333333 -4 7.66666667 -4 4 C-5.32 4.99 -6.64 5.98 -8 7 C-6.47663111 3.31852519 -4.31953005 0 0 0 Z " fill="#13645E" transform="translate(29,13)"/>
<path d="M0 0 C2.31 0.33 4.62 0.66 7 1 C7.33 2.32 7.66 3.64 8 5 C4.86501708 6.85776765 2.62528568 7.20140476 -1 7 C-1.33 7.99 -1.66 8.98 -2 10 C-1.46274105 6.62294375 -0.88935377 3.303314 0 0 Z " fill="#219989" transform="translate(29,13)"/>
<path d="M0 0 C0 3 0 3 -1.375 4.40625 C-2.179375 5.19515625 -2.179375 5.19515625 -3 6 C-4.09966665 8.16165652 -4.09966665 8.16165652 -5 10.5 C-6.26383692 13.6595923 -7.44130532 15.73206608 -10 18 C-9.23921708 10.20197508 -5.57789549 5.11307086 0 0 Z " fill="#2C8F86" transform="translate(26,15)"/>
<path d="M0 0 C0.66 0 1.32 0 2 0 C2 0.66 2 1.32 2 2 C2.99 1.67 3.98 1.34 5 1 C5.0270043 2.45823212 5.04639787 3.91660675 5.0625 5.375 C5.07410156 6.18710938 5.08570313 6.99921875 5.09765625 7.8359375 C5 10 5 10 4 12 C4.66 12 5.32 12 6 12 C5.67 12.66 5.34 13.32 5 14 C3 13 3 13 2.1484375 10.56640625 C1.89320313 9.57511719 1.63796875 8.58382812 1.375 7.5625 C0.98441406 6.07943359 0.98441406 6.07943359 0.5859375 4.56640625 C0 2 0 2 0 0 Z " fill="#239389" transform="translate(196,99)"/>
<path d="M0 0 C0.69921875 1.7421875 0.69921875 1.7421875 1 4 C-0.29296875 6.0703125 -0.29296875 6.0703125 -2.1875 8.125 C-2.79980469 8.80820313 -3.41210938 9.49140625 -4.04296875 10.1953125 C-5.95121135 11.95500927 -7.62873333 12.97998729 -10 14 C-9.67 13.01 -9.34 12.02 -9 11 C-8.34 11 -7.68 11 -7 11 C-7 10.34 -7 9.68 -7 9 C-6.34 9 -5.68 9 -5 9 C-4.8453125 8.1028125 -4.8453125 8.1028125 -4.6875 7.1875 C-3.90298309 4.69130983 -2.90110692 3.74268135 -1 2 C-0.67 1.34 -0.34 0.68 0 0 Z " fill="#165458" transform="translate(191,232)"/>
<path d="M0 0 C0 0.99 0 1.98 0 3 C-1.42218889 4.22374393 -2.85198636 5.44065089 -4.33203125 6.59375 C-6.92860666 8.78290023 -8.89712566 11.34048246 -11 14 C-11.66 13.67 -12.32 13.34 -13 13 C-9.78543385 8.34937337 -7.17172178 4.58586089 -2 2 C-1.34 1.34 -0.68 0.68 0 0 Z " fill="#0F5151" transform="translate(221,135)"/>
<path d="M0 0 C1.2065625 0.0309375 1.2065625 0.0309375 2.4375 0.0625 C2.7675 1.0525 3.0975 2.0425 3.4375 3.0625 C2.1875 5.25 2.1875 5.25 0.4375 7.0625 C-0.5525 7.0625 -1.5425 7.0625 -2.5625 7.0625 C-2.94383299 5.0710944 -3.27575582 3.06970923 -3.5625 1.0625 C-2.5625 0.0625 -2.5625 0.0625 0 0 Z " fill="#204E55" transform="translate(187.5625,138.9375)"/>
<path d="M0 0 C1.32 0.33 2.64 0.66 4 1 C4.99 4.63 5.98 8.26 7 12 C3.89448334 8.89448334 3.18676066 7.10801767 2 3 C1.67 5.97 1.34 8.94 1 12 C0.67 12 0.34 12 0 12 C0 8.04 0 4.08 0 0 Z " fill="#052A2D" transform="translate(192,98)"/>
<path d="M0 0 C5 5 5 5 6.5 6.6875 C8.47092441 8.41205886 10.54765165 9.13836409 13 10 C13 10.33 13 10.66 13 11 C7.5 11.36666667 7.5 11.36666667 5.125 9.625 C4 8 4 8 4 6 C2.68 5.34 1.36 4.68 0 4 C0 2.68 0 1.36 0 0 Z " fill="#1F776F" transform="translate(25,232)"/>
<path d="M0 0 C0.33 0 0.66 0 1 0 C1 2.97 1 5.94 1 9 C1.66 9 2.32 9 3 9 C3 9.66 3 10.32 3 11 C2.34 11 1.68 11 1 11 C0.896875 11.598125 0.79375 12.19625 0.6875 12.8125 C-0.08876455 15.28243264 -1.07088921 16.32251235 -3 18 C-3.66 17.67 -4.32 17.34 -5 17 C-4.52949219 16.47921875 -4.05898437 15.9584375 -3.57421875 15.421875 C-1.58535118 12.36207873 -1.28111476 9.85472891 -0.8125 6.25 C-0.65394531 5.07953125 -0.49539062 3.9090625 -0.33203125 2.703125 C-0.22246094 1.81109375 -0.11289063 0.9190625 0 0 Z " fill="#328F90" transform="translate(197,145)"/>
<path d="M0 0 C0 0.99 0 1.98 0 3 C-1.64351457 4.36176922 -3.31522656 5.68962066 -5 7 C-6.76112384 8.93723623 -8.36860945 10.94910902 -10 13 C-10.66 12.67 -11.32 12.34 -12 12 C-11.525625 11.566875 -11.05125 11.13375 -10.5625 10.6875 C-8.76313043 8.97690387 -8.76313043 8.97690387 -8 6 C-7.34 6 -6.68 6 -6 6 C-6 5.01 -6 4.02 -6 3 C-5.195625 2.690625 -4.39125 2.38125 -3.5625 2.0625 C-1.10919595 1.23664655 -1.10919595 1.23664655 0 0 Z " fill="#115051" transform="translate(206,150)"/>
<path d="M0 0 C2.5 2.25 2.5 2.25 5 5 C5 9.36795404 4.77237852 9.74658993 2 12.75 C1.443125 13.36359375 0.88625 13.9771875 0.3125 14.609375 C-0.120625 15.06828125 -0.55375 15.5271875 -1 16 C-1 15.01 -1 14.02 -1 13 C-0.505 12.54625 -0.01 12.0925 0.5 11.625 C2.24721013 10.04972142 2.24721013 10.04972142 2.3125 7.4375 C2.22966747 4.82203581 2.22966747 4.82203581 0 3 C0 2.01 0 1.02 0 0 Z " fill="#0E4244" transform="translate(226,118)"/>
<path d="M0 0 C2.24834496 -0.13526139 4.49902514 -0.23210804 6.75 -0.3125 C8.00296875 -0.37050781 9.2559375 -0.42851562 10.546875 -0.48828125 C14 0 14 0 16.453125 2.51953125 C16.96359375 3.33808594 17.4740625 4.15664063 18 5 C15 5 15 5 12.9375 3.5625 C8.76506172 1.34311793 4.66289316 1.26257068 0 1 C0 0.67 0 0.34 0 0 Z " fill="#1F7C73" transform="translate(168,13)"/>
<path d="M0 0 C0.33 0.99 0.66 1.98 1 3 C0.401875 3.556875 -0.19625 4.11375 -0.8125 4.6875 C-2.9863446 6.98556429 -4.46898083 9.24416549 -6 12 C-7.65 11.67 -9.3 11.34 -11 11 C-10.01 10.34 -9.02 9.68 -8 9 C-5.02885167 6.17740909 -2.35962225 3.35314741 0 0 Z " fill="#176563" transform="translate(183,231)"/>
<path d="M0 0 C4.70491803 2.40983607 4.70491803 2.40983607 6 5 C4.68 5 3.36 5 2 5 C1.67 5.99 1.34 6.98 1 8 C1 7.34 1 6.68 1 6 C0.34 6 -0.32 6 -1 6 C-1.33 4.35 -1.66 2.7 -2 1 C-1.34 0.67 -0.68 0.34 0 0 Z " fill="#24A699" transform="translate(197,93)"/>
<path d="M0 0 C2.62187494 1.04874998 3.79371361 1.64931313 5.25 4.125 C5.4975 4.74375 5.745 5.3625 6 6 C2.25 7.125 2.25 7.125 0 6 C0 4.02 0 2.04 0 0 Z " fill="#23837D" transform="translate(194,88)"/>
<path d="M0 0 C2 3 2 3 1.875 6 C1 9 1 9 -0.9375 10.875 C-3 12 -3 12 -5 12 C-5 11.34 -5 10.68 -5 10 C-4.34 10 -3.68 10 -3 10 C-1.11608215 6.73454239 -0.50712033 3.71888239 0 0 Z " fill="#051624" transform="translate(184,82)"/>
<path d="M0 0 C0.33 0 0.66 0 1 0 C1 2.97 1 5.94 1 9 C-0.65 9 -2.3 9 -4 9 C-3.67 7.35 -3.34 5.7 -3 4 C-2.34 4 -1.68 4 -1 4 C-0.67 2.68 -0.34 1.36 0 0 Z " fill="#2A8E86" transform="translate(190,101)"/>
<path d="M0 0 C6.52307692 0.61538462 6.52307692 0.61538462 8.9375 2.5625 C9.288125 3.036875 9.63875 3.51125 10 4 C9.34 4.66 8.68 5.32 8 6 C7.608125 5.54625 7.21625 5.0925 6.8125 4.625 C4.69167513 2.72357081 2.66957765 1.93795972 0 1 C0 0.67 0 0.34 0 0 Z " fill="#268280" transform="translate(171,17)"/>
<path d="M0 0 C1.31896465 0.92838287 2.62998689 1.86805732 3.9375 2.8125 C4.66839844 3.33457031 5.39929688 3.85664062 6.15234375 4.39453125 C8 6 8 6 9 9 C6.66471585 8.82701599 5.30822418 8.29774631 3.62109375 6.66796875 C0 2.42788462 0 2.42788462 0 0 Z " fill="#135657" transform="translate(214,107)"/>
<path d="M0 0 C2.475 0.495 2.475 0.495 5 1 C5.33 3.31 5.66 5.62 6 8 C4 6.6875 4 6.6875 2 5 C2 4.01 2 3.02 2 2 C1.34 2 0.68 2 0 2 C0 1.34 0 0.68 0 0 Z " fill="#289F92" transform="translate(200,109)"/>
<path d="M0 0 C3.40320742 1.01176437 4.75725331 1.64843582 6.8125 4.625 C7.204375 5.40875 7.59625 6.1925 8 7 C4.59679258 5.98823563 3.24274669 5.35156418 1.1875 2.375 C0.795625 1.59125 0.40375 0.8075 0 0 Z " fill="#155E5B" transform="translate(20,239)"/>
<path d="M0 0 C1.2065625 0.0309375 1.2065625 0.0309375 2.4375 0.0625 C1.4475 1.5475 1.4475 1.5475 0.4375 3.0625 C-0.2225 3.0625 -0.8825 3.0625 -1.5625 3.0625 C-1.8925 3.7225 -2.2225 4.3825 -2.5625 5.0625 C-3.125 3.125 -3.125 3.125 -3.5625 1.0625 C-2.5625 0.0625 -2.5625 0.0625 0 0 Z " fill="#7A90A5" transform="translate(77.5625,140.9375)"/>
<path d="M0 0 C1.32 0.33 2.64 0.66 4 1 C4.33 2.32 4.66 3.64 5 5 C4.01 5 3.02 5 2 5 C1.34 3.35 0.68 1.7 0 0 Z " fill="#1D6768" transform="translate(209,103)"/>
</svg>
